<?xml version="1.0" encoding="UTF-8"?> <svg xmlns="http://www.w3.org/2000/svg" xmlns:xlink="http://www.w3.org/1999/xlink" version="1.1" id="Layer_1" x="0px" y="0px" viewBox="0 0 212.6 55.4" xml:space="preserve"><g><g id="XMLID_6_"><g id="XMLID_8_"><path id="XMLID_9_" fill="#77787B" d="M195.9,0H16.7c-0.6,0-1.3,0-1.9,0c-0.5,0-1.1,0-1.6,0c-1.2,0-2.3,0.1-3.5,0.3 C8.5,0.5,7.4,0.9,6.3,1.4c-1,0.5-2,1.2-2.8,2.1C2.7,4.3,2,5.3,1.4,6.3C0.9,7.4,0.5,8.5,0.3,9.7C0.1,10.8,0.1,12,0,13.2 c0,0.5,0,1.1,0,1.6c0,0.6,0,1.3,0,1.9v22c0,0.6,0,1.3,0,1.9c0,0.5,0,1.1,0,1.6c0,1.2,0.1,2.3,0.3,3.5C0.5,46.9,0.9,48,1.4,49 c0.5,1,1.2,2,2.1,2.8c0.8,0.8,1.8,1.5,2.8,2.1c1.1,0.5,2.2,0.9,3.3,1.1c1.2,0.2,2.3,0.3,3.5,0.3c0.5,0,1.1,0,1.6,0 c0.6,0,1.3,0,1.9,0h179.2c0.6,0,1.3,0,1.9,0c0.5,0,1.1,0,1.6,0c1.2,0,2.3-0.1,3.5-0.3c1.2-0.2,2.3-0.6,3.3-1.1 c1-0.5,2-1.2,2.8-2.1c0.8-0.8,1.5-1.8,2.1-2.8c0.5-1.1,0.9-2.2,1.1-3.3c0.2-1.2,0.3-2.3,0.3-3.5c0-0.5,0-1.1,0-1.6 c0-0.6,0-1.3,0-1.9v-22c0-0.6,0-1.3,0-1.9c0-0.5,0-1.1,0-1.6c0-1.2-0.1-2.3-0.3-3.5c-0.2-1.2-0.5-2.3-1.1-3.3 c-0.5-1-1.2-2-2.1-2.8c-0.8-0.8-1.8-1.5-2.8-2.1c-1.1-0.5-2.2-0.9-3.3-1.1c-1.1-0.2-2.3-0.3-3.5-0.3c-0.5,0-1.1,0-1.6,0 C197.2,0,196.6,0,195.9,0L195.9,0z"></path></g><path id="XMLID_7_" fill="#FFFFFF" d="M196,1.1c0.6,0,1.3,0,1.9,0l0.1,0l1.5,0c0.9,0,2.2,0.1,3.3,0.3c1.1,0.2,2.1,0.5,3,1 c1,0.5,1.8,1.1,2.6,1.9c0.8,0.8,1.4,1.6,1.9,2.6c0.5,0.9,0.8,1.9,1,3c0.2,1.1,0.3,2.3,0.3,3.3c0,0.5,0,1.1,0,1.6 c0,0.6,0,1.3,0,1.9v22c0,0.6,0,1.3,0,1.9c0,0.5,0,1.1,0,1.6c0,1-0.1,2.2-0.3,3.4c-0.2,1.1-0.5,2.1-1,3c-0.5,1-1.1,1.8-1.9,2.6 c-0.7,0.7-1.6,1.4-2.6,1.9c-0.9,0.5-1.9,0.8-3,1c-1.2,0.2-2.3,0.3-3.3,0.3c-0.5,0-1.1,0-1.6,0c-0.6,0-1.3,0-1.9,0H16.7 c-0.6,0-1.3,0-1.9,0c-0.5,0-1.1,0-1.6,0c-1,0-2.2-0.1-3.3-0.3c-1.1-0.2-2.1-0.5-3-1c-0.9-0.5-1.8-1.1-2.6-1.9 c-0.7-0.7-1.4-1.6-1.9-2.6c-0.5-0.9-0.8-1.9-1-3c-0.2-1.2-0.3-2.4-0.3-3.3c0-0.4,0-0.7,0-1.1l0-0.5v-1.9v-22v-1.9l0-0.5 c0-0.4,0-0.7,0-1.1c0-0.9,0.1-2.1,0.3-3.3c0.2-1.1,0.5-2.1,1-3c0.5-1,1.1-1.8,1.9-2.6c0.8-0.8,1.6-1.4,2.6-1.9 c0.9-0.5,1.9-0.8,3-1c1.2-0.2,2.4-0.3,3.3-0.3l1.6,0c0.6,0,1.3,0,1.9,0H196"></path></g><path fill="#31C4F3" d="M28.2,7.1c-11.5,0-20.9,9.3-20.9,20.9c0,11.5,9.3,20.9,20.9,20.9C39.7,48.8,49,39.5,49,28c0,0,0,0,0,0 C49,16.4,39.7,7.1,28.2,7.1z M24.9,48.5v-4.2c0-1.5-0.9-2.8-2.3-3.4c-7.2-3.1-10.6-11.4-7.6-18.6s11.4-10.6,18.6-7.6 c5.3,2.2,8.7,7.4,8.7,13.1C42.4,37.2,35.3,45.9,24.9,48.5z"></path><path fill="#232F3E" d="M63,15.8c2.9,0,4.4,1.3,4.4,3.8v9c0,0.2-0.1,0.4-0.3,0.4c0,0-0.1,0-0.1,0h-0.5c-0.2,0-0.4-0.1-0.4-0.3 c0,0,0,0,0-0.1L66,27.4c-1.3,1.1-2.9,1.7-4.6,1.8c-1,0.1-2-0.3-2.8-1c-0.7-0.7-1.1-1.7-1-2.7c0-1.1,0.4-2.2,1.2-2.9 c1-0.7,2.2-1.1,3.5-1.1c0.6,0,1.2,0,1.8,0.1c0.6,0.1,1.2,0.2,1.9,0.4V20c0.1-0.8-0.2-1.6-0.7-2.2c-0.7-0.5-1.6-0.7-2.4-0.6 c-1.1,0-2.2,0.2-3.3,0.5l-0.3,0h-0.3c-0.1,0-0.3-0.1-0.3-0.2c0,0,0-0.1,0-0.1v-0.3c0-0.2,0.1-0.4,0.3-0.5c0.7-0.3,1.4-0.5,2.1-0.6 C61.7,15.9,62.3,15.8,63,15.8z M62.7,22.8c-2.4,0-3.5,0.9-3.5,2.7s0.8,2.4,2.5,2.4c0.7,0,1.4-0.1,2.1-0.4c0.8-0.3,1.6-0.7,2.3-1.1 v-3.2C64.9,22.9,63.8,22.8,62.7,22.8z"></path><path fill="#232F3E" d="M85.4,15.8c1-0.1,2,0.3,2.7,1c0.7,0.8,1,1.8,0.9,2.9v8.9c0,0.2-0.1,0.4-0.3,0.4c0,0-0.1,0-0.1,0h-0.7 c-0.2,0-0.4-0.1-0.4-0.3c0,0,0-0.1,0-0.1v-8.3c0.1-0.8-0.1-1.7-0.6-2.4c-0.5-0.5-1.2-0.7-1.9-0.6c-1.7,0-3.3,0.6-4.6,1.6 c0,0.4,0,0.8,0,1.2v8.6c0,0.2-0.1,0.4-0.3,0.4c0,0-0.1,0-0.1,0h-0.7c-0.2,0-0.4-0.1-0.4-0.3c0,0,0-0.1,0-0.1v-8.4 c0.1-0.8-0.1-1.7-0.6-2.4c-0.5-0.5-1.1-0.7-1.8-0.6c-1.6,0-3.2,0.6-4.5,1.5v9.9c0,0.2-0.1,0.4-0.3,0.4c0,0-0.1,0-0.1,0h-0.7 c-0.2,0-0.4-0.1-0.4-0.3c0,0,0-0.1,0-0.1V16.6c0-0.2,0.1-0.4,0.3-0.4c0,0,0.1,0,0.1,0h0.5c0.2,0,0.4,0.1,0.4,0.3c0,0,0,0,0,0v1 c0.7-0.5,1.5-1,2.4-1.3c0.8-0.3,1.6-0.5,2.5-0.5c1.4-0.2,2.8,0.6,3.3,2c0.8-0.6,1.6-1.1,2.5-1.5C83.6,16,84.5,15.8,85.4,15.8z"></path><path fill="#232F3E" d="M96.9,15.8c2.9,0,4.4,1.3,4.4,3.8v9c0,0.2-0.1,0.4-0.3,0.4c0,0-0.1,0-0.1,0h-0.5c-0.2,0-0.4-0.1-0.4-0.3 c0,0,0,0,0,0v-1.1c-1.3,1.1-2.9,1.7-4.6,1.8c-1,0.1-2-0.3-2.8-1c-0.7-0.7-1.1-1.7-1-2.7c-0.1-1.1,0.4-2.2,1.2-2.9 c1-0.7,2.2-1.1,3.5-1.1c0.6,0,1.2,0.1,1.8,0.1c0.6,0.1,1.2,0.2,1.8,0.4V20c0.1-0.8-0.2-1.6-0.7-2.2c-0.7-0.5-1.6-0.7-2.5-0.6 c-1.1,0-2.2,0.2-3.3,0.5l-0.5,0h-0.3c-0.1,0-0.3-0.1-0.3-0.2c0,0,0-0.1,0-0.1v-0.3c0-0.2,0.1-0.4,0.3-0.5c0.7-0.3,1.4-0.5,2.1-0.6 C95.5,15.9,96.2,15.8,96.9,15.8z M96.6,22.8c-2.4,0-3.5,0.9-3.5,2.7s0.8,2.4,2.5,2.4c0.7,0,1.4-0.1,2.1-0.4 c0.8-0.3,1.5-0.7,2.2-1.1v-3.2C98.8,22.9,97.7,22.8,96.6,22.8z"></path><path fill="#232F3E" d="M113.4,28v0.5c0,0.2-0.1,0.4-0.3,0.4c0,0-0.1,0-0.1,0h-8.9c-0.2,0-0.4-0.1-0.4-0.3c0,0,0-0.1,0-0.1V28 c0-0.1,0-0.3,0-0.4c0.1-0.1,0.1-0.3,0.2-0.4l7.9-9.8h-7.5c-0.2,0-0.4-0.1-0.4-0.3c0,0,0-0.1,0-0.1v-0.5c0-0.2,0.1-0.4,0.3-0.4 c0,0,0.1,0,0.1,0h8.6c0.2,0,0.4,0.1,0.4,0.3c0,0,0,0.1,0,0.1v0.5c0,0.1,0,0.3,0,0.4c-0.1,0.1-0.1,0.3-0.3,0.4l-7.8,9.8h7.7 C113.2,27.6,113.4,27.8,113.4,28C113.4,28,113.4,28,113.4,28z"></path><path fill="#232F3E" d="M120.9,29.3c-1.6,0.1-3.1-0.6-4.2-1.8c-1.1-1.4-1.7-3.2-1.6-5c-0.1-1.8,0.4-3.6,1.6-5 c2.4-2.3,6.2-2.3,8.6,0c1.1,1.4,1.7,3.2,1.6,5c0.1,1.8-0.4,3.6-1.6,5C124.1,28.8,122.5,29.4,120.9,29.3z M120.9,28 c2.9,0,4.4-1.8,4.4-5.4s-1.5-5.3-4.4-5.3c-2.9,0-4.4,1.8-4.4,5.4S118,28,120.9,28z"></path><path fill="#232F3E" d="M136.2,15.8c1-0.1,2.1,0.3,2.8,1c0.7,0.8,1.1,1.8,1,2.9v8.9c0,0.2-0.1,0.4-0.3,0.4c0,0-0.1,0-0.1,0H139 c-0.2,0-0.4-0.1-0.4-0.3c0,0,0-0.1,0-0.1v-8.3c0.1-0.9-0.2-1.7-0.7-2.4c-0.5-0.6-1.3-0.8-2.1-0.7c-0.9,0-1.7,0.1-2.6,0.4 c-0.8,0.3-1.6,0.7-2.4,1.2v9.8c0,0.2-0.1,0.4-0.3,0.4c0,0-0.1,0-0.1,0h-0.7c-0.2,0-0.4-0.1-0.4-0.3c0,0,0-0.1,0-0.1v-12 c0-0.2,0.1-0.4,0.3-0.4c0,0,0.1,0,0.1,0h0.5c0.2,0,0.4,0.1,0.4,0.3c0,0,0,0,0,0v1.1c0.8-0.6,1.7-1,2.6-1.4 C134.3,16,135.2,15.8,136.2,15.8z"></path><path fill="#232F3E" d="M154,15.8c2.9,0,4.4,1.3,4.4,3.8v9c0,0.2-0.1,0.4-0.3,0.4c0,0-0.1,0-0.1,0h-0.5c-0.2,0-0.4-0.1-0.4-0.3 c0,0,0,0,0-0.1v-1.1c-1.3,1.1-2.9,1.7-4.6,1.8c-1,0-2-0.3-2.7-1c-0.7-0.7-1.1-1.7-1-2.7c0-1.1,0.4-2.2,1.2-2.9 c1-0.7,2.2-1.1,3.5-1.1c0.6,0,1.2,0,1.8,0.1c0.6,0.1,1.2,0.2,1.9,0.4V20c0.1-0.8-0.2-1.6-0.7-2.2c-0.7-0.5-1.6-0.7-2.5-0.6 c-1.1,0-2.3,0.2-3.3,0.5l-0.4,0.1h-0.3c-0.1,0-0.3-0.1-0.3-0.2c0,0,0-0.1,0-0.1v-0.4c0-0.2,0.1-0.4,0.3-0.5 c0.7-0.3,1.4-0.5,2.1-0.6C152.6,15.9,153.3,15.8,154,15.8z M153.7,22.8c-2.4,0-3.5,0.9-3.5,2.7s0.8,2.4,2.5,2.4 c0.7,0,1.4-0.1,2.1-0.4c0.8-0.3,1.6-0.7,2.3-1.1v-3.2C155.9,22.9,154.8,22.8,153.7,22.8L153.7,22.8z"></path><path fill="#232F3E" d="M161.8,10.6c0-0.2,0.1-0.4,0.3-0.4c0,0,0.1,0,0.1,0h0.7c0.2,0,0.4,0.1,0.4,0.3c0,0,0,0.1,0,0.1v16.2 c0,0.3,0,0.6,0.2,0.8c0.2,0.2,0.5,0.3,0.8,0.2h0.3h0.3c0.2,0,0.3,0.1,0.4,0.3c0,0,0,0.1,0,0.1v0.5c0,0.2-0.1,0.4-0.3,0.4 c0,0,0,0,0,0c-0.1,0-0.3,0-0.4,0H164c-0.6,0-1.2-0.2-1.6-0.6c-0.4-0.5-0.6-1-0.6-1.6L161.8,10.6z"></path><path fill="#232F3E" d="M175.6,27.5c0.2,0,0.3-0.1,0.5-0.2h0.3c0.2,0,0.3,0.1,0.3,0.3c0,0,0,0,0,0.1v0.4c0,0.2-0.1,0.4-0.3,0.5 c-1.2,0.5-2.5,0.8-3.9,0.8c-1.7,0.1-3.3-0.5-4.4-1.7c-1.1-1.4-1.6-3.1-1.5-4.9c0-1,0.1-1.9,0.4-2.9c0.2-0.8,0.7-1.5,1.2-2.1 c0.5-0.6,1.2-1.1,1.9-1.3c0.8-0.3,1.6-0.5,2.5-0.5c1.2-0.1,2.4,0.3,3.4,1c0.8,0.7,1.3,1.6,1.3,2.7c0.1,1-0.4,2-1.3,2.6 c-1.2,0.6-2.6,0.9-4,0.8c-0.6,0-1.3,0-1.9-0.1c-0.7-0.1-1.3-0.2-1.9-0.4c-0.1,1.4,0.3,2.9,1.2,4c0.9,0.9,2.2,1.4,3.5,1.3 C173.7,28,174.7,27.8,175.6,27.5z M172.4,17.1c-1.1-0.1-2.2,0.3-3,1.1c-0.8,0.9-1.3,2-1.3,3.2c0.6,0.2,1.3,0.3,2,0.4 c0.7,0.1,1.3,0.1,2,0.1c1,0.1,1.9-0.1,2.8-0.5c0.6-0.4,0.9-1.1,0.9-1.8C175.7,18,174.6,17.1,172.4,17.1z"></path><path fill="#232F3E" d="M184.1,23.3l-3.7,5.3c-0.1,0.2-0.3,0.3-0.5,0.3h-0.7c-0.2,0-0.3,0-0.3-0.3c0-0.1,0.1-0.2,0.2-0.3l4.3-6 l-4-5.5c0-0.1,0-0.2,0-0.3c0-0.2,0.1-0.3,0.3-0.3h0.8c0.2,0,0.4,0.1,0.5,0.3l3.3,4.7l3.3-4.7c0.1-0.2,0.3-0.3,0.5-0.3h0.7 c0.2,0,0.3,0,0.3,0.3c0,0.1-0.1,0.2-0.1,0.3l-3.9,5.4l4.3,6.1c0.1,0.1,0.1,0.2,0.1,0.3c0,0.2,0,0.3-0.3,0.3h-0.8 c-0.2,0-0.4-0.1-0.5-0.3L184.1,23.3z"></path><path fill="#232F3E" d="M196.4,15.8c2.9,0,4.4,1.3,4.4,3.8v9c0,0.2-0.1,0.4-0.3,0.4c0,0-0.1,0-0.1,0h-0.5c-0.2,0-0.4-0.1-0.4-0.3 c0,0,0,0,0,0v-1.1c-1.3,1.1-2.9,1.7-4.6,1.8c-1.1,0.1-2.1-0.3-2.9-1c-0.7-0.7-1.1-1.7-1-2.7c-0.1-1.1,0.4-2.2,1.2-2.9 c1-0.7,2.2-1.1,3.5-1.1c0.6,0,1.2,0.1,1.8,0.1c0.6,0.1,1.2,0.2,1.8,0.4V20c0.1-0.8-0.2-1.6-0.7-2.2c-0.7-0.5-1.5-0.7-2.4-0.6 c-1.1,0-2.2,0.2-3.3,0.5l-0.4,0.1h-0.3c-0.1,0-0.3-0.1-0.3-0.2c0,0,0-0.1,0-0.1v-0.4c0-0.2,0.1-0.4,0.3-0.5 c0.7-0.3,1.4-0.5,2.1-0.6C195,15.9,195.7,15.8,196.4,15.8z M196,22.8c-2.4,0-3.5,0.9-3.5,2.7s0.8,2.4,2.5,2.4 c0.7,0,1.4-0.1,2.1-0.4c0.8-0.3,1.5-0.7,2.2-1.1v-3.2C198.2,22.9,197.1,22.8,196,22.8z"></path><path fill="#232F3E" d="M58.6,43.4v-6.6h4.2v0.9h-3.1v1.8h2.5v0.9h-2.5v2.1h3v0.9L58.6,43.4z"></path><path fill="#232F3E" d="M65.8,38.3v5.1h-1.1v-6.6H66l3,5v-5H70v6.6h-1.3L65.8,38.3z"></path><path fill="#232F3E" d="M76.5,43.4L76,41.7h-2.7l-0.5,1.7h-1.1l2.4-6.6h1.2l2.4,6.6L76.5,43.4z M73.6,40.9h2.1l-1.1-3L73.6,40.9z"></path><path fill="#232F3E" d="M79.3,43.4v-6.6h2.2c0.5,0,1.1,0.1,1.5,0.5c0.4,0.3,0.6,0.8,0.6,1.3c0,0.3-0.1,0.6-0.2,0.8 c-0.2,0.2-0.4,0.4-0.7,0.5c0.4,0.1,0.7,0.3,0.9,0.6c0.2,0.3,0.3,0.6,0.3,1c0,0.5-0.2,1-0.6,1.3c-0.5,0.4-1.1,0.5-1.6,0.5H79.3z M80.4,37.7v1.9h0.9c0.7,0,1-0.3,1-1c0.1-0.5-0.3-0.9-0.7-1c-0.1,0-0.2,0-0.3,0H80.4z M80.4,40.5v2.1h1.3c0.7,0,1.1-0.3,1.1-1 s-0.4-1.1-1.1-1.1L80.4,40.5z"></path><path fill="#232F3E" d="M85.9,43.4v-6.6h1.2v5.7h3v0.9L85.9,43.4z"></path><path fill="#232F3E" d="M91.7,43.4v-6.6h4.2v0.9h-3v1.8h2.5v0.9h-2.5v2.1h3v0.9L91.7,43.4z"></path><path fill="#232F3E" d="M97.8,43.4v-6.6h2.3c0.8-0.1,1.6,0.3,2.2,0.8c0.6,0.7,0.8,1.5,0.8,2.4c0.1,0.9-0.2,1.8-0.8,2.5 c-0.6,0.6-1.4,0.9-2.2,0.9L97.8,43.4z M99,37.7v4.8h1c1.3,0,2-0.7,2-2.3v-0.2c0-1.5-0.7-2.3-2-2.3L99,37.7z"></path></g></svg> 