<?xml version="1.0" encoding="UTF-8"?> <svg xmlns="http://www.w3.org/2000/svg" xmlns:xlink="http://www.w3.org/1999/xlink" version="1.1" id="Layer_1" x="0px" y="0px" viewBox="0 0 212.6 55.4" xml:space="preserve"><g><g><g id="XMLID_1_"><g id="XMLID_3_"><path id="XMLID_4_" fill="#77787B" d="M195.9,0H16.7c-0.6,0-1.3,0-1.9,0c-0.5,0-1.1,0-1.6,0c-1.2,0-2.3,0.1-3.5,0.3 C8.5,0.5,7.4,0.9,6.3,1.4c-1,0.5-2,1.2-2.8,2.1C2.7,4.3,2,5.3,1.4,6.3C0.9,7.4,0.5,8.5,0.3,9.7C0.1,10.8,0.1,12,0,13.2 c0,0.5,0,1.1,0,1.6c0,0.6,0,1.3,0,1.9v22c0,0.6,0,1.3,0,1.9c0,0.5,0,1.1,0,1.6c0,1.2,0.1,2.3,0.3,3.5C0.5,46.9,0.9,48,1.4,49 c0.5,1,1.2,2,2.1,2.8c0.8,0.8,1.8,1.5,2.8,2.1c1.1,0.5,2.2,0.9,3.3,1.1c1.2,0.2,2.3,0.3,3.5,0.3c0.5,0,1.1,0,1.6,0 c0.6,0,1.3,0,1.9,0h179.2c0.6,0,1.3,0,1.9,0c0.5,0,1.1,0,1.6,0c1.2,0,2.3-0.1,3.5-0.3c1.2-0.2,2.3-0.6,3.3-1.1 c1-0.5,2-1.2,2.8-2.1c0.8-0.8,1.5-1.8,2.1-2.8c0.5-1.1,0.9-2.2,1.1-3.3c0.2-1.2,0.3-2.3,0.3-3.5c0-0.5,0-1.1,0-1.6 c0-0.6,0-1.3,0-1.9v-22c0-0.6,0-1.3,0-1.9c0-0.5,0-1.1,0-1.6c0-1.2-0.1-2.3-0.3-3.5c-0.2-1.2-0.5-2.3-1.1-3.3 c-0.5-1-1.2-2-2.1-2.8c-0.8-0.8-1.8-1.5-2.8-2.1c-1.1-0.5-2.2-0.9-3.3-1.1c-1.1-0.2-2.3-0.3-3.5-0.3c-0.5,0-1.1,0-1.6,0 C197.2,0,196.6,0,195.9,0L195.9,0z"></path></g><path id="XMLID_2_" fill="#FFFFFF" d="M196,1.1c0.6,0,1.3,0,1.9,0l0.1,0l1.5,0c0.9,0,2.2,0.1,3.3,0.3c1.1,0.2,2.1,0.5,3,1 c1,0.5,1.8,1.1,2.6,1.9c0.8,0.8,1.4,1.6,1.9,2.6c0.5,0.9,0.8,1.9,1,3c0.2,1.1,0.3,2.3,0.3,3.3c0,0.5,0,1.1,0,1.6 c0,0.6,0,1.3,0,1.9v22c0,0.6,0,1.3,0,1.9c0,0.5,0,1.1,0,1.6c0,1-0.1,2.2-0.3,3.4c-0.2,1.1-0.5,2.1-1,3c-0.5,1-1.1,1.8-1.9,2.6 c-0.7,0.7-1.6,1.4-2.6,1.9c-0.9,0.5-1.9,0.8-3,1c-1.2,0.2-2.3,0.3-3.3,0.3c-0.5,0-1.1,0-1.6,0c-0.6,0-1.3,0-1.9,0H16.7 c-0.6,0-1.3,0-1.9,0c-0.5,0-1.1,0-1.6,0c-1,0-2.2-0.1-3.3-0.3c-1.1-0.2-2.1-0.5-3-1c-0.9-0.5-1.8-1.1-2.6-1.9 c-0.7-0.7-1.4-1.6-1.9-2.6c-0.5-0.9-0.8-1.9-1-3c-0.2-1.2-0.3-2.4-0.3-3.3c0-0.4,0-0.7,0-1.1l0-0.5v-1.9v-22v-1.9l0-0.5 c0-0.4,0-0.7,0-1.1c0-0.9,0.1-2.1,0.3-3.3c0.2-1.1,0.5-2.1,1-3c0.5-1,1.1-1.8,1.9-2.6c0.8-0.8,1.6-1.4,2.6-1.9 c0.9-0.5,1.9-0.8,3-1c1.2-0.2,2.4-0.3,3.3-0.3l1.6,0c0.6,0,1.3,0,1.9,0H196"></path></g><g><path fill="#231F20" d="M62.9,39.7h-5.9l-1.4,4.2H53l5.6-15.6h2.6l5.6,15.6h-2.6L62.9,39.7z M57.6,37.8h4.7l-2.3-6.8h-0.1 L57.6,37.8z"></path><path fill="#231F20" d="M79.3,38.2c0,3.5-1.9,5.8-4.7,5.8c-1.6,0-2.9-0.7-3.6-2h-0.1v5.6h-2.3V32.6h2.3v1.9h0c0.6-1.2,2-2,3.6-2 C77.4,32.4,79.3,34.7,79.3,38.2z M76.9,38.2c0-2.3-1.2-3.8-3-3.8c-1.8,0-3,1.5-3,3.8c0,2.3,1.2,3.8,3,3.8 C75.7,42.1,76.9,40.6,76.9,38.2z"></path><path fill="#231F20" d="M91.9,38.2c0,3.5-1.9,5.8-4.7,5.8c-1.6,0-2.9-0.7-3.6-2h-0.1v5.6h-2.3V32.6h2.3v1.9h0c0.6-1.2,2-2,3.6-2 C90,32.4,91.9,34.7,91.9,38.2z M89.5,38.2c0-2.3-1.2-3.8-3-3.8c-1.8,0-3,1.5-3,3.8c0,2.3,1.2,3.8,3,3.8 C88.3,42.1,89.5,40.6,89.5,38.2z"></path><path fill="#231F20" d="M93.9,28.3h2.3v15.6h-2.3V28.3z"></path><path fill="#231F20" d="M108.8,40.6c-0.3,2.1-2.3,3.5-4.9,3.5c-3.3,0-5.4-2.2-5.4-5.8c0-3.6,2.1-5.9,5.3-5.9 c3.1,0,5.1,2.2,5.1,5.6v0.8h-8V39c0,1.9,1.2,3.2,3.1,3.2c1.3,0,2.3-0.6,2.6-1.6H108.8z M101,37.2h5.7c-0.1-1.7-1.2-2.9-2.8-2.9 C102.2,34.3,101.1,35.5,101,37.2z"></path><path fill="#231F20" d="M126.8,43.9V37h-8v6.9h-2.4V28.3h2.4v6.6h8v-6.6h2.4v15.6H126.8z"></path><path fill="#231F20" d="M131.8,38.2c0-3.6,2.1-5.8,5.4-5.8c3.3,0,5.4,2.2,5.4,5.8c0,3.6-2.1,5.8-5.4,5.8 C133.9,44,131.8,41.8,131.8,38.2z M140.2,38.2c0-2.4-1.1-3.9-3-3.9s-3,1.5-3,3.9c0,2.5,1.1,3.9,3,3.9S140.2,40.7,140.2,38.2z"></path><path fill="#231F20" d="M144.6,32.6h2.2v1.9h0.1c0.5-1.3,1.7-2.1,3.2-2.1c1.6,0,2.7,0.8,3.2,2.2h0.1c0.6-1.4,1.9-2.2,3.5-2.2 c2.2,0,3.7,1.5,3.7,3.8v7.7h-2.3v-7.2c0-1.5-0.8-2.3-2.2-2.3c-1.4,0-2.3,1-2.3,2.4v7h-2.3v-7.3c0-1.3-0.8-2.1-2.1-2.1 c-1.4,0-2.4,1.1-2.4,2.5v6.9h-2.3V32.6z"></path><path fill="#231F20" d="M173.2,40.6c-0.3,2.1-2.3,3.5-4.9,3.5c-3.3,0-5.4-2.2-5.4-5.8c0-3.6,2.1-5.9,5.3-5.9 c3.1,0,5.1,2.2,5.1,5.6v0.8h-8V39c0,1.9,1.2,3.2,3.1,3.2c1.3,0,2.3-0.6,2.6-1.6H173.2z M165.3,37.2h5.7c-0.1-1.7-1.2-2.9-2.8-2.9 C166.6,34.3,165.4,35.5,165.3,37.2z"></path><path fill="#231F20" d="M175.9,43.9V28.3h2.4v7.4h0.1l6.5-7.4h2.9l-6.2,6.9l6.7,8.7h-3l-5.4-7l-1.6,1.8v5.2H175.9z"></path><path fill="#231F20" d="M190.2,29.6c0-0.8,0.6-1.3,1.3-1.3c0.8,0,1.4,0.6,1.4,1.3c0,0.7-0.6,1.3-1.4,1.3 C190.8,30.9,190.2,30.3,190.2,29.6z M190.4,32.6h2.3v11.3h-2.3V32.6z"></path><path fill="#231F20" d="M198.7,29.9v2.7h2.2v1.8h-2.2v6.3c0,1,0.4,1.4,1.4,1.4c0.2,0,0.6,0,0.8-0.1v1.8c-0.3,0.1-0.8,0.1-1.3,0.1 c-2.3,0-3.2-0.9-3.2-3.1v-6.5h-1.7v-1.8h1.7v-2.7H198.7z"></path></g><g><path fill="#77787B" d="M57.9,21.2h-1.2l-2.9-10.5h1.4l2.1,8.5h0.1l2.3-8.5H61l2.3,8.5h0.1l2.1-8.5h1.4l-2.9,10.5h-1.2l-2.4-8.3 h-0.1L57.9,21.2z"></path><path fill="#77787B" d="M67.6,17.3c0-2.5,1.4-4.1,3.6-4.1c2.2,0,3.6,1.5,3.6,4.1c0,2.5-1.4,4.1-3.6,4.1 C69,21.3,67.6,19.8,67.6,17.3z M73.6,17.3c0-1.9-0.8-2.9-2.3-2.9s-2.3,1.1-2.3,2.9c0,1.9,0.8,2.9,2.3,2.9S73.6,19.1,73.6,17.3z"></path><path fill="#77787B" d="M76.8,13.4H78v1.2h0.1c0.2-0.8,1.1-1.3,2.2-1.3c0.2,0,0.5,0,0.6,0v1.2c-0.1,0-0.6-0.1-0.8-0.1 c-1.2,0-2.1,0.8-2.1,1.9v4.9h-1.2V13.4z"></path><path fill="#77787B" d="M87.3,13.4h1.5l-3.4,3.4l3.6,4.5h-1.6l-2.9-3.7l-0.7,0.7v3h-1.2V10.3h1.2v6.5h0.1L87.3,13.4z"></path><path fill="#77787B" d="M93,13.2c1.6,0,2.8,0.8,2.9,2.1h-1.2c-0.2-0.6-0.8-1-1.7-1c-0.9,0-1.7,0.5-1.7,1.2c0,0.5,0.4,0.9,1.4,1.1 l1.2,0.3c1.5,0.4,2.2,1,2.2,2.1c0,1.4-1.4,2.4-3.1,2.4c-1.7,0-2.9-0.8-3.1-2.1h1.3c0.2,0.7,0.8,1.1,1.8,1.1 c1.1,0,1.8-0.5,1.8-1.2c0-0.5-0.4-0.9-1.2-1.1l-1.3-0.3c-1.5-0.4-2.1-1-2.1-2.1C90.1,14.2,91.4,13.2,93,13.2z"></path><path fill="#77787B" d="M109.9,21.2h-1.3l-1.7-6.1h-0.1l-1.7,6.1h-1.3l-2.2-7.8h1.3l1.5,6.3h0.1l1.8-6.3h1.2l1.7,6.3h0.1l1.5-6.3 h1.3L109.9,21.2z"></path><path fill="#77787B" d="M113.6,10.9c0-0.5,0.4-0.9,0.9-0.9s0.9,0.4,0.9,0.9c0,0.5-0.4,0.9-0.9,0.9S113.6,11.4,113.6,10.9z M113.8,13.4h1.2v7.8h-1.2V13.4z"></path><path fill="#77787B" d="M119.2,11.4v2h1.7v1h-1.7v4.4c0,0.9,0.3,1.3,1.2,1.3c0.2,0,0.3,0,0.6,0v1.1c-0.2,0-0.5,0.1-0.7,0.1 c-1.6,0-2.3-0.6-2.3-2.1v-4.7h-1.3v-1h1.3v-2H119.2z"></path><path fill="#77787B" d="M122.9,10.3h1.2v4.3h0.1c0.4-0.9,1.2-1.4,2.4-1.4c1.7,0,2.7,1.1,2.7,2.9v5.1h-1.3v-4.8 c0-1.4-0.6-2.1-1.8-2.1c-1.4,0-2.2,0.9-2.2,2.2v4.6h-1.2V10.3z"></path></g><g><g><g><path fill="#77787B" d="M35.4,10.3l1.3,0l0.4,0c0.2,0,0.4,0,0.7,0c0.9,0,1.6,0.1,2.3,0.2c0.7,0.1,1.4,0.4,2,0.7 c0.6,0.3,1.2,0.7,1.7,1.2c0.5,0.5,0.9,1.1,1.2,1.7c0.3,0.6,0.5,1.3,0.7,2c0.1,0.8,0.2,1.6,0.2,2.3c0,0.4,0,0.7,0,1.1 c0,0.4,0,0.9,0,1.3v13.6c0,0.4,0,0.9,0,1.3c0,0.4,0,0.7,0,1.1c0,0.7-0.1,1.5-0.2,2.3c-0.1,0.7-0.4,1.4-0.7,2 c-0.3,0.6-0.7,1.2-1.2,1.7c-0.5,0.5-1.1,0.9-1.7,1.2c-0.6,0.3-1.3,0.5-2,0.7C39.2,45,38.4,45,37.7,45c-0.4,0-0.7,0-1.1,0 c-0.4,0-0.9,0-1.3,0H21.7c-0.4,0-0.9,0-1.3,0c-0.4,0-0.7,0-1.1,0c-0.6,0-1.5-0.1-2.3-0.2c-0.7-0.1-1.4-0.4-2-0.7 c-0.6-0.3-1.2-0.7-1.7-1.2c-0.5-0.5-0.9-1.1-1.2-1.7c-0.3-0.6-0.5-1.3-0.7-2c-0.1-0.8-0.2-1.6-0.2-2.3c0-0.4,0-0.7,0-1.1 c0-0.4,0-0.9,0-1.3V20.9c0-0.4,0-0.9,0-1.3c0-0.4,0-0.7,0-1.1c0-0.6,0.1-1.5,0.2-2.3c0.1-0.8,0.4-1.4,0.7-2 c0.3-0.6,0.7-1.2,1.2-1.7c0.5-0.5,1.1-0.9,1.7-1.2c0.6-0.3,1.3-0.5,2-0.7c0.6-0.1,1.3-0.2,2.3-0.2c0.2,0,0.4,0,0.7,0l0.4,0 l1.3,0H35.4 M35.4,9.5H21.7c-0.4,0-0.9,0-1.3,0c-0.4,0-0.7,0-1.1,0c-0.8,0-1.6,0.1-2.4,0.2c-0.8,0.1-1.5,0.4-2.3,0.8 c-0.7,0.4-1.4,0.8-1.9,1.4c-0.6,0.6-1,1.2-1.4,1.9c-0.4,0.7-0.6,1.5-0.7,2.3c-0.1,0.8-0.2,1.6-0.2,2.4c0,0.4,0,0.7,0,1.1 c0,0.4,0,0.9,0,1.3v13.6c0,0.4,0,0.9,0,1.3c0,0.4,0,0.7,0,1.1c0,0.8,0.1,1.6,0.2,2.4c0.1,0.8,0.4,1.5,0.7,2.3 c0.4,0.7,0.8,1.4,1.4,1.9c0.6,0.6,1.2,1,1.9,1.4c0.7,0.4,1.5,0.6,2.3,0.7c0.8,0.1,1.6,0.2,2.4,0.2c0.4,0,0.7,0,1.1,0 c0.4,0,0.9,0,1.3,0h13.6c0.4,0,0.9,0,1.3,0c0.4,0,0.7,0,1.1,0c0.8,0,1.6-0.1,2.4-0.2c0.8-0.1,1.5-0.4,2.3-0.7 c0.7-0.4,1.4-0.8,1.9-1.4c0.6-0.6,1-1.2,1.4-1.9c0.4-0.7,0.6-1.5,0.8-2.3c0.1-0.8,0.2-1.6,0.2-2.4c0-0.4,0-0.7,0-1.1 c0-0.4,0-0.9,0-1.3V20.9c0-0.4,0-0.9,0-1.3c0-0.4,0-0.7,0-1.1c0-0.8-0.1-1.6-0.2-2.4c-0.1-0.8-0.4-1.5-0.8-2.3 c-0.4-0.7-0.8-1.4-1.4-1.9c-0.6-0.6-1.2-1-1.9-1.4c-0.7-0.4-1.5-0.6-2.3-0.8c-0.8-0.1-1.6-0.2-2.4-0.2c-0.4,0-0.7,0-1.1,0 C36.2,9.5,35.8,9.5,35.4,9.5L35.4,9.5z"></path></g></g><path fill="#FFFFFF" d="M35.4,10.3l1.3,0l0.4,0c0.2,0,0.4,0,0.7,0c0.9,0,1.6,0.1,2.3,0.2c0.7,0.1,1.4,0.4,2,0.7 c0.6,0.3,1.2,0.7,1.7,1.2c0.5,0.5,0.9,1.1,1.2,1.7c0.3,0.6,0.5,1.3,0.7,2c0.1,0.8,0.2,1.6,0.2,2.3c0,0.4,0,0.7,0,1.1 c0,0.4,0,0.9,0,1.3v13.6c0,0.4,0,0.9,0,1.3c0,0.4,0,0.7,0,1.1c0,0.7-0.1,1.5-0.2,2.3c-0.1,0.7-0.4,1.4-0.7,2 c-0.3,0.6-0.7,1.2-1.2,1.7c-0.5,0.5-1.1,0.9-1.7,1.2c-0.6,0.3-1.3,0.5-2,0.7C39.2,45,38.4,45,37.7,45c-0.4,0-0.7,0-1.1,0 c-0.4,0-0.9,0-1.3,0H21.7c-0.4,0-0.9,0-1.3,0c-0.4,0-0.7,0-1.1,0c-0.6,0-1.5-0.1-2.3-0.2c-0.7-0.1-1.4-0.4-2-0.7 c-0.6-0.3-1.2-0.7-1.7-1.2c-0.5-0.5-0.9-1.1-1.2-1.7c-0.3-0.6-0.5-1.3-0.7-2c-0.1-0.8-0.2-1.6-0.2-2.3c0-0.4,0-0.7,0-1.1 c0-0.4,0-0.9,0-1.3V20.9c0-0.4,0-0.9,0-1.3c0-0.4,0-0.7,0-1.1c0-0.6,0.1-1.5,0.2-2.3c0.1-0.8,0.4-1.4,0.7-2 c0.3-0.6,0.7-1.2,1.2-1.7c0.5-0.5,1.1-0.9,1.7-1.2c0.6-0.3,1.3-0.5,2-0.7c0.6-0.1,1.3-0.2,2.3-0.2c0.2,0,0.4,0,0.7,0l0.4,0l1.3,0 H35.4"></path></g></g><g><path fill="#F89F1B" d="M41.7,24.2c-0.1-0.1-1.1-0.9-2.5-2l0,0v-4.5c0-0.3-0.1-0.4-0.3-0.4h-2.3c-0.3,0-0.4,0-0.4,0.4v2.1l0,0 c-3.3-2.6-6.9-5.5-7-5.6C28.9,14,28.7,14,28.5,14c-0.2,0-0.4,0.1-0.6,0.3c-0.3,0.2-12.2,9.6-12.6,9.9C14.9,24.5,15,25,15.5,25 c0.3,0,2.3,0,2.3,0s0,12,0,12.7c0,0.8,0.3,1.1,1.1,1.1c0.5,0,9.6,0,9.6,0s9.1,0,9.6,0c0.8,0,1.1-0.3,1.1-1.1c0-0.7,0-12.7,0-12.7 s2,0,2.3,0C42.1,25,42.2,24.5,41.7,24.2z M37.3,35.9c0,0.6-0.3,1-0.9,1c-0.6,0-7.9,0-7.9,0s-7.3,0-7.9,0s-0.9-0.4-0.9-1 c0-0.5,0-11.3,0-11.8c0-0.7,0.3-1.1,0.6-1.4c0.3-0.3,7.4-5.8,7.6-6c0.2-0.2,0.4-0.2,0.5-0.2c0.2,0,0.3,0.1,0.5,0.2 c0.2,0.2,7.2,5.7,7.6,6c0.3,0.3,0.6,0.7,0.6,1.4C37.3,24.6,37.3,35.4,37.3,35.9z"></path><path fill="#FCB627" d="M36.6,22.7c-0.3-0.3-7.4-5.8-7.6-6c-0.2-0.2-0.4-0.2-0.5-0.2c-0.2,0-0.3,0.1-0.5,0.2 c-0.2,0.2-7.2,5.7-7.6,6c-0.3,0.3-0.6,0.7-0.6,1.4c0,0.5,0,11.4,0,11.8c0,0.6,0.3,1,0.9,1s7.9,0,7.9,0s7.3,0,7.9,0 c0.6,0,0.9-0.4,0.9-1c0-0.5,0-11.3,0-11.8C37.3,23.4,37,22.9,36.6,22.7z M35.3,34.1c0,0.5-0.3,0.8-0.7,0.8c-0.4,0-6,0-6,0 s-5.6,0-6,0c-0.4,0-0.7-0.2-0.7-0.8c0-0.4,0-8.8,0-9.2c0-0.5,0.1-0.8,0.5-1.1c0.2-0.2,5.7-4.5,5.9-4.6c0.1-0.1,0.3-0.2,0.4-0.2 c0.1,0,0.3,0.1,0.4,0.2c0.1,0.1,5.6,4.5,5.9,4.6c0.4,0.3,0.5,0.6,0.5,1.1C35.3,25.4,35.3,33.7,35.3,34.1z"></path><path fill="#FFC849" d="M34.8,23.8c-0.2-0.2-5.7-4.5-5.9-4.6C28.8,19,28.7,19,28.5,19c-0.1,0-0.3,0.1-0.4,0.2 c-0.1,0.1-5.6,4.5-5.9,4.6c-0.4,0.3-0.5,0.6-0.5,1.1c0,0.5,0,8.9,0,9.2c0,0.5,0.3,0.8,0.7,0.8c0.4,0,6,0,6,0s5.6,0,6,0 c0.4,0,0.7-0.2,0.7-0.8c0-0.4,0-8.8,0-9.2C35.3,24.4,35.2,24.1,34.8,23.8z M33.3,32.3c0,0.4-0.2,0.6-0.6,0.6c-0.3,0-4.3,0-4.3,0 s-3.9,0-4.3,0c-0.3,0-0.6-0.2-0.6-0.6c0-0.3,0-6.3,0-6.6s0-0.5,0.3-0.8c0.2-0.2,4-3.2,4.1-3.3c0.1-0.1,0.2-0.1,0.4-0.1 c0.1,0,0.2,0,0.4,0.1c0.1,0.1,3.9,3.1,4.1,3.3c0.3,0.3,0.3,0.5,0.3,0.8S33.3,32.1,33.3,32.3z"></path><path fill="#FFDD67" d="M33,24.9c-0.2-0.2-4-3.2-4.1-3.3c-0.1-0.1-0.2-0.1-0.4-0.1c-0.1,0-0.2,0-0.4,0.1c-0.1,0.1-3.9,3.1-4.1,3.3 c-0.3,0.3-0.3,0.5-0.3,0.8s0,6.4,0,6.6c0,0.4,0.2,0.6,0.6,0.6c0.3,0,4.3,0,4.3,0s3.9,0,4.3,0c0.3,0,0.6-0.2,0.6-0.6 c0-0.3,0-6.3,0-6.6S33.3,25.2,33,24.9z M31.4,30.6c0,0.3-0.2,0.4-0.4,0.4c-0.2,0-2.5,0-2.5,0s-2.3,0-2.5,0c-0.2,0-0.4-0.1-0.4-0.4 c0-0.2,0-3.8,0-4.1c0-0.2,0.1-0.4,0.3-0.6c0.1-0.1,2.2-1.8,2.3-1.8c0.1-0.1,0.2-0.1,0.3-0.1c0.1,0,0.2,0,0.3,0.1 c0.1,0.1,2.2,1.7,2.3,1.8c0.2,0.2,0.3,0.4,0.3,0.6C31.4,26.7,31.4,30.3,31.4,30.6z"></path><path fill="#FFF584" d="M28.5,31c0,0,2.3,0,2.5,0c0.2,0,0.4-0.1,0.4-0.4c0-0.2,0-3.8,0-4.1c0-0.2-0.1-0.4-0.3-0.6 c-0.1-0.1-2.2-1.8-2.3-1.8C28.7,24,28.6,24,28.5,24s-0.2,0-0.3,0.1c-0.1,0.1-2.2,1.7-2.3,1.8c-0.2,0.2-0.3,0.4-0.3,0.6 c0,0.2,0,3.8,0,4.1c0,0.3,0.2,0.4,0.4,0.4C26.2,31,28.5,31,28.5,31z"></path></g></g></svg> 