<?xml version="1.0" encoding="UTF-8"?> <svg xmlns="http://www.w3.org/2000/svg" xmlns:xlink="http://www.w3.org/1999/xlink" version="1.1" id="Layer_1" x="0px" y="0px" viewBox="0 0 212.6 55.4" xml:space="preserve"><g id="XMLID_16_"><g id="XMLID_18_"><path id="XMLID_19_" fill="#77787B" d="M195.9,0H16.7c-0.6,0-1.3,0-1.9,0c-0.5,0-1.1,0-1.6,0c-1.2,0-2.3,0.1-3.5,0.3 C8.5,0.5,7.4,0.9,6.3,1.4c-1,0.5-2,1.2-2.8,2.1C2.7,4.3,2,5.3,1.4,6.3C0.9,7.4,0.5,8.5,0.3,9.7C0.1,10.8,0.1,12,0,13.2 c0,0.5,0,1.1,0,1.6c0,0.6,0,1.3,0,1.9v22c0,0.6,0,1.3,0,1.9c0,0.5,0,1.1,0,1.6c0,1.2,0.1,2.3,0.3,3.5C0.5,46.9,0.9,48,1.4,49 c0.5,1,1.2,2,2.1,2.8c0.8,0.8,1.8,1.5,2.8,2.1c1.1,0.5,2.2,0.9,3.3,1.1c1.2,0.2,2.3,0.3,3.5,0.3c0.5,0,1.1,0,1.6,0 c0.6,0,1.3,0,1.9,0h179.2c0.6,0,1.3,0,1.9,0c0.5,0,1.1,0,1.6,0c1.2,0,2.3-0.1,3.5-0.3c1.2-0.2,2.3-0.6,3.3-1.1 c1-0.5,2-1.2,2.8-2.1c0.8-0.8,1.5-1.8,2.1-2.8c0.5-1.1,0.9-2.2,1.1-3.3c0.2-1.2,0.3-2.3,0.3-3.5c0-0.5,0-1.1,0-1.6 c0-0.6,0-1.3,0-1.9v-22c0-0.6,0-1.3,0-1.9c0-0.5,0-1.1,0-1.6c0-1.2-0.1-2.3-0.3-3.5c-0.2-1.2-0.5-2.3-1.1-3.3 c-0.5-1-1.2-2-2.1-2.8c-0.8-0.8-1.8-1.5-2.8-2.1c-1.1-0.5-2.2-0.9-3.3-1.1c-1.1-0.2-2.3-0.3-3.5-0.3c-0.5,0-1.1,0-1.6,0 C197.2,0,196.6,0,195.9,0L195.9,0z"></path></g><path id="XMLID_17_" fill="#FFFFFF" d="M196,1.1c0.6,0,1.3,0,1.9,0l0.1,0l1.5,0c0.9,0,2.2,0.1,3.3,0.3c1.1,0.2,2.1,0.5,3,1 c1,0.5,1.8,1.1,2.6,1.9c0.8,0.8,1.4,1.6,1.9,2.6c0.5,0.9,0.8,1.9,1,3c0.2,1.1,0.3,2.3,0.3,3.3c0,0.5,0,1.1,0,1.6c0,0.6,0,1.3,0,1.9 v22c0,0.6,0,1.3,0,1.9c0,0.5,0,1.1,0,1.6c0,1-0.1,2.2-0.3,3.4c-0.2,1.1-0.5,2.1-1,3c-0.5,1-1.1,1.8-1.9,2.6 c-0.7,0.7-1.6,1.4-2.6,1.9c-0.9,0.5-1.9,0.8-3,1c-1.2,0.2-2.3,0.3-3.3,0.3c-0.5,0-1.1,0-1.6,0c-0.6,0-1.3,0-1.9,0H16.7 c-0.6,0-1.3,0-1.9,0c-0.5,0-1.1,0-1.6,0c-1,0-2.2-0.1-3.3-0.3c-1.1-0.2-2.1-0.5-3-1c-0.9-0.5-1.8-1.1-2.6-1.9 c-0.7-0.7-1.4-1.6-1.9-2.6c-0.5-0.9-0.8-1.9-1-3c-0.2-1.2-0.3-2.4-0.3-3.3c0-0.4,0-0.7,0-1.1l0-0.5v-1.9v-22v-1.9l0-0.5 c0-0.4,0-0.7,0-1.1c0-0.9,0.1-2.1,0.3-3.3c0.2-1.1,0.5-2.1,1-3c0.5-1,1.1-1.8,1.9-2.6c0.8-0.8,1.6-1.4,2.6-1.9c0.9-0.5,1.9-0.8,3-1 c1.2-0.2,2.4-0.3,3.3-0.3l1.6,0c0.6,0,1.3,0,1.9,0H196"></path></g><g><g><path fill="#527EBF" d="M21.4,8c6.1-0.1,11.3,4.9,11.3,11.3c0,6-4.8,11.2-11.3,11.3c-6.5,0-11.4-5.3-11.3-11.4 C10.1,12.9,15.2,8,21.4,8z"></path><path fill="#F8BB15" d="M46.7,39.1c0,3.7-2.9,6.6-6.7,6.5c-3.6,0-6.5-3-6.5-6.7c0-3.5,3-6.6,6.7-6.5 C43.9,32.6,46.8,35.4,46.7,39.1z"></path><path fill="#EC4035" d="M40.1,30.7c-3.2,0-5.7-2.6-5.6-5.8c0-3.1,2.6-5.6,5.7-5.6c3.1,0,5.7,2.6,5.7,5.7 C45.8,28.6,42.9,30.7,40.1,30.7z"></path><path fill="#8D8E8F" d="M79.7,29.3c-0.6,0.6-1,1-1.5,1.5c-0.3-0.2-0.6-0.4-0.8-0.5c-3.3-2.1-7.7-0.1-8.3,3.8 c-0.5,2.9,1.5,6.1,5,6.3c2.7,0.2,4.8-1.4,5.2-3.7c0-0.1,0-0.2,0-0.4c-0.8,0-1.6,0-2.3,0c-0.8,0-1.6,0-2.4,0c0-0.7,0-1.3,0-1.9 c0.6-0.2,6-0.2,6.8,0c0.3,2.2-0.1,4.2-1.6,5.9c-2.3,2.5-6.3,2.9-9.3,1.1c-2.8-1.7-4.2-4.8-3.6-8c0.6-3.1,3.1-5.5,6.4-6 c2.2-0.3,4.2,0.2,5.9,1.6C79.4,29.1,79.5,29.2,79.7,29.3z"></path><path fill="#8D8E8F" d="M104,44c0.6-0.3,1.2-0.5,1.8-0.7c0.2,0.2,0.3,0.4,0.5,0.6c0.7,1,1.7,1.3,2.9,1c1.1-0.2,1.6-1,1.7-2 c0.1-0.4,0.1-0.8,0.1-1.3c-0.6,0.3-1.1,0.6-1.6,0.8c-2.6,0.7-5.4-1.3-5.7-4c-0.2-2,0.5-3.6,2.2-4.8c1.6-1.1,3.2-1,5,0.2 c0.1-0.2,0.1-0.4,0.2-0.6c0.6,0,1.2,0,1.9,0c0,0.3,0.1,0.6,0.1,0.9c0,2.6,0,5.3,0,7.9c0,0.7-0.1,1.4-0.3,2 c-0.4,1.7-1.8,2.7-3.5,2.9c-2,0.2-3.6-0.4-4.7-2.1C104.3,44.5,104.2,44.3,104,44z M111.1,38c0-1-0.2-1.6-0.6-2.2 c-0.9-1.3-2.6-1.5-3.7-0.5c-1.4,1.2-1.4,3.3-0.1,4.5c1.1,1.1,2.9,0.9,3.8-0.4C110.8,38.9,111,38.3,111.1,38z"></path><path fill="#8D8E8F" d="M132.7,38.6c-0.4,1.2-0.9,2.3-1.3,3.5c-0.6,0-1.2,0-1.9,0c1.7-4.4,3.3-8.8,5-13.1c0.7,0,1.3,0,1.9,0 c1.6,4.3,3.3,8.7,5,13.1c-0.7,0-1.3,0-1.9,0c-0.4-1.1-0.8-2.3-1.3-3.5C136.3,38.6,134.6,38.6,132.7,38.6z M137.6,36.9 c-0.7-1.9-1.4-3.8-2-5.6c-0.1,0-0.2,0-0.2,0c-0.7,1.8-1.3,3.7-2,5.6C134.7,36.9,136.1,36.9,137.6,36.9z"></path><path fill="#8D8E8F" d="M71.3,23.6c-0.6,0-1.1,0-1.7,0c-0.9-2.9-1.9-5.9-2.9-8.9c0.6,0,1.2,0,1.8,0c0.6,2.1,1.3,4.3,1.9,6.4 c0.1,0,0.1,0,0.2,0c0.7-2.1,1.4-4.3,2.1-6.5c0.6,0,1.2,0,1.8,0c0.7,2.1,1.4,4.3,2.1,6.4c0.1,0,0.1,0,0.2,0 c0.6-2.1,1.3-4.3,1.9-6.5c0.6,0,1.1,0,1.7,0c-1,3-1.9,6-2.9,8.9c-0.6,0-1.1,0-1.8,0c-0.7-2.2-1.4-4.3-2.1-6.5c-0.1,0-0.1,0-0.2,0 C72.7,19.2,72.1,21.5,71.3,23.6z"></path><path fill="#8D8E8F" d="M121,23.6c-0.3,0-0.5,0-0.7,0.1c-0.3,0-0.6,0-1,0c-1-3-1.9-5.9-2.9-8.9c0.6,0,1.2,0,1.8,0 c0.6,2.1,1.3,4.3,1.9,6.4c0.1,0,0.1,0,0.2,0c0.7-2.1,1.4-4.3,2.1-6.5c0.6,0,1.2,0,1.8,0c0.7,2.1,1.4,4.3,2.1,6.4 c0.1,0,0.1,0,0.2,0c0.6-2.1,1.3-4.3,1.9-6.5c0.6,0,1.1,0,1.7,0c-1,3-1.9,6-2.9,8.9c-0.3,0-0.6,0-0.8,0c-0.3,0-0.6,0-1,0 c-0.7-2.2-1.4-4.4-2.2-6.5c-0.1,0-0.1,0-0.2,0C122.3,19.2,121.8,21.5,121,23.6z"></path><path fill="#8D8E8F" d="M82.3,37.6c0-2.8,2.1-4.9,4.9-4.9c2.8,0,4.9,2.2,4.9,4.9c0,2.7-2.2,4.9-4.9,4.9 C84.5,42.5,82.3,40.4,82.3,37.6z M84.5,37.5c0,0.2,0,0.5,0,0.7c0.2,1.1,0.8,1.8,1.8,2.2c1,0.4,1.9,0.1,2.7-0.6 c0.6-0.6,0.9-1.3,0.9-2.2c0-1.6-1.2-3-2.7-2.9C85.5,34.7,84.4,36,84.5,37.5z"></path><path fill="#8D8E8F" d="M102.7,37.6c0,2.8-2.1,4.9-4.9,4.9c-2.3,0-4.9-1.6-4.9-4.9c0-3.1,2.4-4.9,4.9-4.9 C100.6,32.7,102.7,34.8,102.7,37.6z M95.1,37.6c0,1.6,1.3,3,2.8,2.9c1.4,0,2.7-1.4,2.7-2.9c0-1.6-1.3-3-2.8-3 C96.3,34.7,95.1,36,95.1,37.6z"></path><path fill="#8D8E8F" d="M126.6,36.4c-2.2,0.9-4.3,1.8-6.4,2.7c0.6,1.9,2.7,2,4.7,0.2c0.5,0.3,1,0.7,1.6,1.1 c-0.5,0.8-1.2,1.4-2,1.8c-1.8,0.7-3.6,0.6-5.1-0.6c-1.5-1.2-2-2.8-1.7-4.6c0.3-1.9,1.3-3.3,3.2-3.9c2-0.6,4,0.2,5,2 C126.2,35.3,126.3,35.8,126.6,36.4z M124,35.7c-0.6-1-1.5-1.3-2.5-0.9c-1.1,0.4-1.8,1.5-1.6,2.6C121.3,36.8,122.6,36.2,124,35.7z"></path><path fill="#8D8E8F" d="M181.6,36.7c0.1-0.9-0.3-1.6-1.1-2c-1.3-0.6-2.5-0.3-3.5,0.9c-0.5-0.3-0.9-0.6-1.4-0.9 c0.2-0.2,0.2-0.4,0.4-0.6c1.5-1.6,4.8-1.6,6.4,0c0.6,0.6,0.9,1.4,0.9,2.2c0.1,1.8,0,3.7,0,5.5c0,0.1,0,0.2-0.1,0.3 c-0.4,0-0.9,0-1.4,0c-0.1-0.3-0.1-0.6-0.2-1c-0.2,0.2-0.4,0.3-0.5,0.5c-1.5,1.4-4,1.2-5.2-0.4c-1.2-1.5-0.6-3.7,1.3-4.5 c1.3-0.5,2.6-0.5,3.9-0.1C181.2,36.6,181.4,36.7,181.6,36.7C181.6,36.7,181.6,36.7,181.6,36.7z M181.6,38.3 c-1.1-0.6-2.3-0.7-3.5-0.3c-0.7,0.3-1.2,1-1.1,1.6c0.1,0.7,0.8,1.2,1.6,1.3C180.2,41.1,181.5,40,181.6,38.3z"></path><path fill="#8D8E8F" d="M171.3,19.5c-0.1,1.2,0.6,2.3,1.7,2.7c1.3,0.6,2.3,0.2,3.8-1.3c0.4,0.2,0.9,0.4,1.4,0.7 c-0.6,1-1.3,1.8-2.3,2.1c-3.5,1.2-6.7-1.1-6.3-5.1c0.1-1.6,0.8-2.9,2.3-3.7c1.6-0.8,3.2-0.8,4.7,0.1c1.4,0.9,1.9,2.4,1.8,4.1 c0,0,0,0.1-0.1,0.3c-1.1,0-2.2,0-3.4,0C173.6,19.4,172.4,19.4,171.3,19.5z M176.4,18.1c-0.2-1.5-1.1-2.2-2.6-2.1 c-1.3,0-2.2,0.9-2.3,2.1C173.1,18.1,174.7,18.1,176.4,18.1z"></path><path fill="#8D8E8F" d="M142.4,23.6c-0.6,0-1,0-1.4,0c-0.2-0.7-0.2-12.4,0-13.1c0.4,0,0.9,0,1.5,0c0,1.7,0,3.4,0,5.3 c0.3-0.2,0.4-0.3,0.5-0.4c1.2-1.1,2.6-1.3,4-0.7c1.1,0.4,1.7,1.3,1.8,2.4c0.1,2.2,0,4.3,0,6.5c-0.5,0-1.1,0-1.6,0 c0-0.3,0-0.6-0.1-0.9c0-1.4,0-2.8,0-4.2c0-0.2,0-0.5,0-0.7c-0.1-0.8-0.3-1.4-1.1-1.7c-0.8-0.3-1.6-0.3-2.3,0.2 c-0.8,0.6-1.2,1.5-1.2,2.6c0,1.3,0,2.5,0,3.8C142.4,23,142.4,23.3,142.4,23.6z"></path><path fill="#8D8E8F" d="M160.4,10.5c0.5,0,1,0,1.5,0c0,1.7,0,3.4,0,5.2c0.3-0.2,0.4-0.3,0.6-0.4c1.2-1.1,2.6-1.2,4-0.6 c1.3,0.5,1.8,1.7,1.8,3.1c0,1.7,0,3.4,0,5.1c0,0.2,0,0.5-0.1,0.8c-0.5,0-1,0-1.6,0c0-0.3-0.1-0.6-0.1-0.9c0-1.6,0-3.2,0-4.8 c0-1.3-0.8-2-2.1-2c-1,0-1.7,0.5-2.1,1.4c-0.3,0.5-0.4,1.2-0.4,1.7c-0.1,1.2,0,2.4,0,3.6c0,0.3,0,0.6,0,0.9c-0.6,0-1,0-1.6,0 C160.4,19.2,160.4,14.9,160.4,10.5z"></path><path fill="#8D8E8F" d="M105.2,23.6c-0.8,0-1.4,0-2.1,0c-0.4-0.7-0.9-1.4-1.4-2.1c-0.4-0.7-0.9-1.3-1.4-2 c-0.9,0.7-1.7,1.3-1.5,2.5c0.1,0.5,0,1,0,1.6c-0.6,0-1,0-1.6,0c0-4.4,0-8.7,0-13.1c0.5,0,1,0,1.6,0c0,2.6,0,5.2,0,8 c1.3-1.4,2.5-2.7,3.6-3.8c1,0,1.7,0,2.6,0c-1.2,1.2-2.4,2.4-3.5,3.5C102.8,20,104,21.8,105.2,23.6z"></path><path fill="#8D8E8F" d="M89.9,19.2c0,2.8-2,4.8-4.6,4.8c-2.7,0-4.7-2.1-4.7-4.9c0-2.8,2-4.8,4.7-4.8C88,14.4,89.9,16.4,89.9,19.2z M88.2,19.2c0-0.2,0-0.4,0-0.6c-0.2-1.3-1.2-2.4-2.4-2.6c-1.4-0.2-2.6,0.5-3.2,1.8c-0.4,1.1-0.4,2.1,0.2,3.1c0.8,1.5,2.6,2,4.1,1 C87.8,21.3,88.2,20.3,88.2,19.2z"></path><path fill="#8D8E8F" d="M141.7,39.9c0.5-0.2,0.9-0.4,1.4-0.6c0.2,0.3,0.4,0.6,0.6,0.8c0.7,0.9,2,1.1,3,0.6 c0.8-0.4,0.9-1.2,0.1-1.8c-0.4-0.2-0.8-0.4-1.2-0.5c-0.7-0.2-1.5-0.4-2.3-0.7c-0.7-0.3-1.2-0.7-1.4-1.4c-0.4-1.1,0.1-2.3,1.2-2.9 c1.4-0.8,3.6-0.7,4.8,0.3c0.4,0.3,0.6,0.7,1,1.2c-0.6,0.3-1,0.5-1.5,0.7c-0.7-1.1-1.7-1.3-2.8-1.1c-0.5,0.1-0.9,0.4-1.1,1 c0.1,0.5,0.5,0.8,0.9,0.9c0.5,0.2,1,0.3,1.4,0.4c0.6,0.2,1.2,0.4,1.8,0.6c1.8,0.9,1.7,3.1,0.5,4.1c-1.8,1.5-5.1,1.1-6.3-1.1 C141.9,40.3,141.9,40.1,141.7,39.9z"></path><path fill="#8D8E8F" d="M157.1,35c-0.4,0.2-0.9,0.4-1.3,0.6c-1.7-1.5-3.4-1.5-4,0c0.1,0.5,0.5,0.7,0.9,0.9c0.5,0.2,1,0.3,1.5,0.4 c0.6,0.2,1.2,0.3,1.7,0.6c1.8,0.9,1.7,3.1,0.5,4.1c-2.1,1.8-5.8,0.9-6.6-1.7c0.4-0.2,0.9-0.4,1.4-0.6c0.2,0.3,0.4,0.6,0.6,0.8 c0.7,0.9,2.1,1.1,3.1,0.5c0.7-0.4,0.8-1.2,0.1-1.7c-0.3-0.3-0.8-0.4-1.2-0.5c-0.7-0.2-1.4-0.4-2.1-0.6c-0.8-0.3-1.4-0.8-1.6-1.7 c-0.3-1.1,0.2-2.1,1.2-2.7c1.4-0.8,3.6-0.7,4.9,0.3C156.6,34,156.8,34.3,157.1,35z"></path><path fill="#8D8E8F" d="M168.8,34.9c-0.6,0.3-1.1,0.5-1.6,0.7c-0.7-1-1.7-1.3-2.8-1.1c-0.5,0.1-1,0.4-1.1,1c0,0.5,0.4,0.8,0.8,0.9 c0.5,0.2,1,0.3,1.5,0.4c0.6,0.2,1.2,0.4,1.8,0.6c1.8,0.9,1.7,3.1,0.5,4.1c-2.2,1.8-5.9,0.8-6.5-1.7c0.4-0.2,0.9-0.4,1.4-0.6 c0.2,0.3,0.4,0.5,0.6,0.8c0.7,0.9,2.1,1.2,3.1,0.6c0.8-0.4,0.9-1.2,0.2-1.7c-0.4-0.3-0.8-0.4-1.2-0.5c-0.7-0.2-1.5-0.4-2.2-0.6 c-0.7-0.3-1.3-0.7-1.5-1.5c-0.3-1.1,0.1-2.3,1.2-2.9c1.4-0.8,3.5-0.7,4.8,0.3C168.1,34,168.3,34.4,168.8,34.9z"></path><path fill="#8D8E8F" d="M107,17c0.1,0.6,0.5,0.8,0.9,0.9c0.5,0.2,1.1,0.3,1.6,0.4c0.5,0.2,1.1,0.3,1.6,0.6 c1.8,0.9,1.8,3.1,0.4,4.2c-1.9,1.5-5.2,1-6.3-1.3c-0.1-0.1-0.1-0.2-0.2-0.4c0.5-0.2,0.9-0.4,1.4-0.6c0.2,0.3,0.4,0.6,0.6,0.8 c0.7,0.9,2.1,1.1,3.1,0.6c0.8-0.4,0.8-1.2,0.1-1.7c-0.4-0.3-0.8-0.4-1.2-0.5c-0.7-0.2-1.5-0.4-2.2-0.6c-0.7-0.3-1.3-0.8-1.5-1.5 c-0.3-1.1,0.1-2.3,1.2-2.9c1.6-0.8,3.2-0.8,4.7,0.3c0.4,0.3,0.7,0.7,1.2,1.2c-0.6,0.3-1,0.5-1.5,0.7c-0.7-1-1.7-1.3-2.8-1.1 C107.6,16.1,107.2,16.4,107,17z"></path><path fill="#8D8E8F" d="M185,33.2c0.6,0,1,0,1.5,0c0,0.3,0.1,0.6,0.1,1c0.2-0.1,0.3-0.2,0.4-0.3c1.1-1,2.7-1.3,4.1-0.7 c1.1,0.5,1.6,1.4,1.7,2.6c0.1,2,0,4.1,0,6.1c0,0.1,0,0.1-0.1,0.3c-0.5,0-1,0-1.5,0c0-0.3-0.1-0.6-0.1-0.8c0-1.6,0-3.1,0-4.7 c0-1.2-0.4-1.9-1.4-2.1c-1.1-0.3-2.2,0.1-2.7,1.1c-0.3,0.5-0.4,1.2-0.5,1.8c-0.1,1.3,0,2.5,0,3.8c0,0.3,0,0.6,0,0.9 c-0.6,0-1,0-1.6,0C185,39.1,185,36.2,185,33.2z"></path><path fill="#8D8E8F" d="M116.5,27.9c0,4.8,0,9.5,0,14.2c-0.7,0-1.4,0-2.1,0c0-4.7,0-9.4,0-14.2C115.1,27.9,115.8,27.9,116.5,27.9z "></path><path fill="#8D8E8F" d="M170.8,34.8c-0.5-0.1-1-0.1-1.5-0.1c0-0.5,0-0.9,0-1.4c0.5,0,1-0.1,1.5-0.1c0-0.9,0-1.7,0-2.7 c0.6,0,1.1,0,1.7,0c0,0.9,0,1.7,0,2.7c0.8,0,1.5,0.1,2.2,0.1c0,0.5,0,0.9,0,1.4c-0.7,0-1.3,0.1-2.1,0.1c0,0.3-0.1,0.6-0.1,0.8 c0,1.2,0,2.4,0,3.6c0,1.3,0.4,1.7,1.8,1.5c0.2,0.4,0.3,0.9,0.5,1.3c-1.9,1.1-4.1-0.1-4.1-2.2c0-1.3,0-2.7,0-4 C170.8,35.4,170.8,35.1,170.8,34.8z"></path><path fill="#8D8E8F" d="M156.7,14.7c0.8,0,1.5,0,2.2,0c0,0.5,0,1,0,1.5c-0.7,0-1.3,0.1-2.1,0.1c0,0.3-0.1,0.6-0.1,0.8 c0,1.2,0,2.4,0,3.6c0,1.3,0.4,1.7,1.9,1.5c0.2,0.4,0.3,0.9,0.5,1.3c-2,1.1-4.1-0.1-4.1-2.3c0-1.3,0-2.6,0-4c0-0.3,0-0.6-0.1-0.9 c-0.5,0-0.9-0.1-1.4-0.1c0-0.5,0-0.9,0-1.4c0.5,0,0.9-0.1,1.5-0.1c0-0.9,0-1.8,0-2.7c0.6,0,1.1,0,1.7,0 C156.7,12.8,156.7,13.7,156.7,14.7z"></path><path fill="#8D8E8F" d="M135.4,14.6c0-0.9,0-1.7,0-2.7c0.6,0,1.1,0,1.7,0c0,0.9,0,1.7,0,2.7c0.8,0,1.5,0.1,2.2,0.1 c0,0.5,0,0.9,0,1.5c-0.7,0-1.3,0.1-2.1,0.1c0,0.3-0.1,0.6-0.1,0.8c0,1.2,0,2.3,0,3.5c0,1.4,0.4,1.7,1.9,1.6 c0.2,0.4,0.3,0.9,0.5,1.4c-1.1,0.4-2.1,0.4-3.1-0.2c-0.7-0.5-1-1.2-1-2c0-1.4,0-2.7,0-4.1c0-0.3,0-0.6,0-0.9 c-0.5-0.1-1-0.1-1.5-0.2c0-0.5,0-0.9,0-1.4C134.3,14.7,134.8,14.6,135.4,14.6z"></path><path fill="#8D8E8F" d="M195,34.8c-0.6-0.1-1-0.1-1.5-0.1c0-0.5,0-0.9,0-1.4c0.5,0,0.9-0.1,1.5-0.1c0-0.4,0-0.9,0-1.3 c0-0.4,0-0.9,0-1.4c0.6,0,1.1,0,1.7,0c0,0.9,0,1.7,0,2.7c0.8,0,1.5,0.1,2.2,0.1c0,0.5,0,0.9,0,1.4c-0.7,0-1.4,0.1-2.1,0.1 c0,0.3-0.1,0.6-0.1,0.8c0,1.2,0,2.3,0,3.5c0,1.4,0.4,1.7,1.9,1.6c0.2,0.4,0.3,0.9,0.5,1.3c-2.1,1.1-4.1-0.1-4.1-2.4 c0-1.3,0-2.6,0-3.9C195,35.5,195,35.2,195,34.8z"></path><path fill="#2EA952" d="M48.6,21.2c-1.6,0-2.8-1.2-2.8-2.8c0-1.6,1.3-2.9,2.9-2.9c1.5,0,2.8,1.3,2.8,2.8 C51.5,20,50.3,21.2,48.6,21.2z"></path><path fill="#8D8E8F" d="M92.6,23.6c-0.6,0-1,0-1.6,0c0-3,0-5.9,0-8.9c0.5,0,1,0,1.5,0c0,0.4,0.1,0.7,0.1,1.1 c1-1.2,2.2-1.8,3.9-1.2c-0.2,0.5-0.3,1-0.5,1.6c-0.8-0.1-1.5-0.1-2.1,0.3c-0.9,0.6-1.3,1.4-1.3,2.4c0,1.3,0,2.5,0,3.8 C92.6,22.9,92.6,23.2,92.6,23.6z"></path><path fill="#8D8E8F" d="M132.7,23.6c-0.6,0-1,0-1.6,0c-0.1-3,0-5.9,0-8.9c0.6,0,1.1,0,1.7,0C132.7,17.7,132.7,20.6,132.7,23.6z"></path><path fill="#8D8E8F" d="M160,42.1c-0.5,0-1,0-1.6,0c0-3,0-5.9,0-8.9c0.5,0,1,0,1.6,0C160,36.2,160,39.1,160,42.1z"></path><path fill="#8D8E8F" d="M160.4,30c0,0.7-0.5,1.2-1.2,1.2c-0.6,0-1.2-0.6-1.2-1.2c0-0.7,0.6-1.1,1.2-1.1 C160,28.9,160.4,29.3,160.4,30z"></path><path fill="#8D8E8F" d="M131.9,12.7c-0.6,0-1.2-0.6-1.2-1.2c0-0.7,0.6-1.1,1.2-1.1c0.7,0,1.1,0.4,1.1,1.1 C133.1,12.2,132.5,12.7,131.9,12.7z"></path></g></g></svg> 